<svg width="50" height="51" viewBox="0 0 50 51" fill="none" xmlns="http://www.w3.org/2000/svg">
<g id="bx:code-curly">
<path id="Vector" d="M18.75 46.2967H20.8333V42.13H18.7729C18.1313 42.1175 12.5 41.7696 12.5 33.7967C12.5 29.6446 11.1146 27.0342 9.37085 25.4633C11.1146 23.8925 12.5 21.2821 12.5 17.13C12.5 9.15709 18.1313 8.80917 18.75 8.79667H20.8333V4.63H18.7458C15.1438 4.63834 8.33335 7.26334 8.33335 17.13C8.33335 22.9633 4.83751 23.3592 4.13751 23.38L4.16668 27.5467C4.33751 27.5467 8.33335 27.6175 8.33335 33.7967C8.33335 43.6633 15.1438 46.2883 18.75 46.2967ZM45.8333 23.38C45.6625 23.38 41.6667 23.3092 41.6667 17.13C41.6667 7.26334 34.8563 4.63834 31.25 4.63H29.1667V8.79667H31.2271C31.8688 8.80917 37.5 9.15709 37.5 17.13C37.5 21.2821 38.8854 23.8925 40.6292 25.4633C38.8854 27.0342 37.5 29.6446 37.5 33.7967C37.5 41.7696 31.8688 42.1175 31.25 42.13H29.1667V46.2967H31.2542C34.8563 46.2883 41.6667 43.6633 41.6667 33.7967C41.6667 27.9633 45.1625 27.5675 45.8625 27.5467L45.8333 23.38Z" fill="#FCA311"/>
</g>
</svg>
