<svg width="26" height="28" viewBox="0 0 32 33" fill="none" xmlns="http://www.w3.org/2000/svg">
<path d="M26.25 14.406H16.875V12.406H26.25V14.406ZM22.5 20.406H16.875V18.406H22.5V20.406ZM30 4.40601V28.406H0V4.40601H30ZM28.125 6.40601H1.875V26.406H28.125V6.40601ZM9.375 18.406C8.85742 18.406 8.37402 18.5102 7.9248 18.7185C7.47559 18.9268 7.0752 19.2133 6.72363 19.5779C6.37207 19.9425 6.10352 20.3643 5.91797 20.8435C5.73242 21.3227 5.63477 21.8435 5.625 22.406H3.75C3.75 21.8643 3.81836 21.3383 3.95508 20.8279C4.0918 20.3175 4.28223 19.8331 4.52637 19.3748C4.77051 18.9164 5.07324 18.4998 5.43457 18.1248C5.7959 17.7498 6.20117 17.4268 6.65039 17.156C6.32812 16.7914 6.0791 16.3695 5.90332 15.8904C5.72754 15.4112 5.63477 14.9164 5.625 14.406C5.625 13.8539 5.72266 13.3383 5.91797 12.8591C6.11328 12.38 6.38184 11.9529 6.72363 11.5779C7.06543 11.2029 7.46094 10.9164 7.91016 10.7185C8.35937 10.5206 8.84766 10.4164 9.375 10.406C9.89258 10.406 10.376 10.5102 10.8252 10.7185C11.2744 10.9268 11.6748 11.2133 12.0264 11.5779C12.3779 11.9425 12.6465 12.3643 12.832 12.8435C13.0176 13.3227 13.1152 13.8435 13.125 14.406C13.125 14.9164 13.0371 15.4112 12.8613 15.8904C12.6855 16.3695 12.4316 16.7914 12.0996 17.156C12.5488 17.4268 12.9492 17.7498 13.3008 18.1248C13.6523 18.4998 13.9551 18.9112 14.209 19.3591C14.4629 19.807 14.6582 20.2914 14.7949 20.8123C14.9316 21.3331 15 21.8643 15 22.406H13.125C13.125 21.8539 13.0273 21.3383 12.832 20.8591C12.6367 20.38 12.3682 19.9529 12.0264 19.5779C11.6846 19.2029 11.2891 18.9164 10.8398 18.7185C10.3906 18.5206 9.90234 18.4164 9.375 18.406ZM7.5 14.406C7.5 14.6873 7.54883 14.9477 7.64648 15.1873C7.74414 15.4268 7.87598 15.6352 8.04199 15.8123C8.20801 15.9893 8.4082 16.1352 8.64258 16.2498C8.87695 16.3643 9.12109 16.4164 9.375 16.406C9.63867 16.406 9.88281 16.3539 10.1074 16.2498C10.332 16.1456 10.5273 16.005 10.6934 15.8279C10.8594 15.6508 10.9961 15.4373 11.1035 15.1873C11.2109 14.9373 11.2598 14.6768 11.25 14.406C11.25 14.1248 11.2012 13.8643 11.1035 13.6248C11.0059 13.3852 10.874 13.1768 10.708 12.9998C10.542 12.8227 10.3418 12.6768 10.1074 12.5623C9.87305 12.4477 9.62891 12.3956 9.375 12.406C9.11133 12.406 8.86719 12.4581 8.64258 12.5623C8.41797 12.6664 8.22266 12.807 8.05664 12.9841C7.89063 13.1612 7.75391 13.3748 7.64648 13.6248C7.53906 13.8748 7.49023 14.1352 7.5 14.406Z" fill="#E9ECEF"/>
</svg>
