<svg width="90" height="18" viewBox="0 0 90 18" fill="none" xmlns="http://www.w3.org/2000/svg">
<g clip-path="url(#clip0_25_52)">
<path d="M7.45015 13.9054C7.80523 13.9054 8.1422 13.8737 8.45931 13.8031C8.78099 13.7322 9.06646 13.6211 9.30728 13.4561C9.5481 13.2979 9.74726 13.0806 9.89263 12.8038C10.0378 12.5299 10.1073 12.1745 10.1073 11.7441C10.1073 10.902 9.87031 10.3036 9.39904 9.94045C8.92671 9.58239 8.29689 9.40432 7.52222 9.40432H3.60933V13.9054H7.45015V13.9054ZM7.25152 6.94742C7.8889 6.94742 8.41659 6.79608 8.83495 6.48864C9.24892 6.18717 9.45001 5.68742 9.45001 5.00223C9.45001 4.62254 9.38304 4.30772 9.24892 4.06373C9.11058 3.81975 8.92671 3.62867 8.69468 3.49526C8.46441 3.35621 8.20425 3.25989 7.90191 3.20838C7.60589 3.15002 7.29493 3.1277 6.97659 3.1277H3.60933V6.94742H7.25152ZM7.71698 0.343499C8.49851 0.343499 9.20409 0.411174 9.84921 0.55092C10.4903 0.686799 11.0377 0.913909 11.5001 1.22557C11.9558 1.53653 12.3121 1.95049 12.5671 2.47186C12.816 2.98584 12.9416 3.62885 12.9416 4.38981C12.9416 5.21281 12.7545 5.89994 12.3808 6.44926C12.0046 6.99787 11.4518 7.44787 10.7132 7.7975C11.7192 8.08666 12.464 8.59625 12.9581 9.31994C13.4547 10.0486 13.6974 10.9213 13.6974 11.9437C13.6974 12.7728 13.5385 13.486 13.2219 14.0863C12.9017 14.6939 12.4661 15.1866 11.9291 15.5665C11.3876 15.9501 10.7659 16.2313 10.0695 16.4145C9.37229 16.5985 8.65409 16.691 7.93302 16.6894H0.0105591V0.343323H7.71698V0.343499ZM22.5633 7.6328C22.1766 7.20512 21.5225 6.97362 20.7243 6.97362C20.2047 6.97362 19.7745 7.06115 19.4307 7.23922C19.0943 7.415 18.8181 7.63403 18.6077 7.89155C18.3978 8.15346 18.2544 8.42961 18.1714 8.7251C18.0881 9.01321 18.0385 9.27442 18.023 9.50539H23.3125C23.235 8.67606 22.9512 8.06346 22.5633 7.6328ZM18.8279 13.8509C19.3147 14.3262 20.0185 14.5658 20.9303 14.5658C21.5858 14.5658 22.1525 14.4 22.6278 14.0692C23.0989 13.7396 23.3858 13.3865 23.4969 13.0203H26.3595C25.8994 14.4448 25.2012 15.4621 24.2483 16.0742C23.3076 16.6892 22.1592 16.9958 20.8217 16.9958C19.8893 16.9958 19.0503 16.8444 18.2974 16.5475C17.5444 16.2466 16.9151 15.8246 16.3856 15.2747C15.8697 14.7222 15.4695 14.0692 15.184 13.3028C14.9015 12.5399 14.7586 11.6951 14.7586 10.7796C14.7586 9.89457 14.9071 9.0677 15.1958 8.30375C15.4911 7.53717 15.8989 6.87553 16.4352 6.32059C16.9735 5.76266 17.6108 5.3225 18.3532 5.001C19.0962 4.68002 19.9148 4.51936 20.8217 4.51936C21.8229 4.51936 22.6999 4.71184 23.4515 5.10471C24.2007 5.49143 24.8145 6.01578 25.2974 6.67268C25.7797 7.32852 26.123 8.0784 26.3377 8.91881C26.55 9.75852 26.6251 10.6357 26.5637 11.5543H18.0229C18.0229 12.4896 18.3393 13.3754 18.8279 13.8509V13.8509ZM31.181 0.343499V6.50674H31.2555C31.6682 5.82102 32.1903 5.3225 32.8321 5.01348C33.4726 4.70182 34.0977 4.54783 34.7064 4.54783C35.5748 4.54783 36.2862 4.66209 36.8417 4.89729C37.3978 5.13688 37.8378 5.46102 38.16 5.88237C38.4759 6.30196 38.6993 6.81401 38.8304 7.41729C38.9588 8.01934 39.0252 8.68362 39.0252 9.41592V16.6894H35.7585V10.0062C35.7585 9.03184 35.6064 8.29936 35.3036 7.82018C35.0002 7.3403 34.4614 7.09948 33.6843 7.09948C32.8054 7.09948 32.1697 7.36578 31.7762 7.89155C31.3754 8.41713 31.181 9.2825 31.181 10.4866V16.6894H27.9155V0.343323H31.181M47.7447 11.1911C47.5425 11.2581 47.3182 11.3147 47.0872 11.3638C46.8401 11.4097 46.5915 11.4478 46.3419 11.478C46.0829 11.5081 45.8248 11.5456 45.568 11.5903C45.3247 11.638 45.0814 11.6976 44.8497 11.7753C44.614 11.8522 44.4073 11.9546 44.2371 12.0838C44.0616 12.2146 43.9169 12.3823 43.8133 12.5752C43.7089 12.7726 43.6532 13.0289 43.6532 13.332C43.6532 13.6211 43.7089 13.8651 43.8131 14.0655C43.9207 14.2641 44.061 14.4194 44.2452 14.5341C44.4289 14.6489 44.6442 14.7296 44.884 14.7744C45.1273 14.8228 45.3786 14.8409 45.6363 14.8409C46.2755 14.8409 46.7684 14.7347 47.1196 14.5218C47.469 14.3076 47.7324 14.052 47.8967 13.754C48.0644 13.4561 48.1657 13.1557 48.1984 12.8528C48.2412 12.548 48.2606 12.3022 48.2606 12.1179V10.902C48.1196 11.0268 47.9538 11.1229 47.7447 11.1911V11.1911ZM41.346 6.58567C41.6713 6.08678 42.1082 5.67045 42.6222 5.36961C43.1411 5.06199 43.7209 4.84526 44.3725 4.71553C45.0167 4.58375 45.6726 4.51802 46.3301 4.51936C46.9229 4.51936 47.5225 4.56031 48.1402 4.64469C48.7477 4.72854 49.3033 4.89307 49.8073 5.13811C50.3107 5.38455 50.721 5.7217 51.0386 6.16168C51.3608 6.59059 51.5241 7.17155 51.5241 7.89155V14.0599C51.5241 14.5962 51.5563 15.1058 51.6134 15.5938C51.6779 16.0859 51.8449 16.4551 52.0026 16.6973L48.6821 16.6892C48.5845 16.5477 48.5039 16.3261 48.4659 16.133C48.427 15.9409 48.4003 15.7464 48.3859 15.5509C47.8688 16.0859 47.2625 16.4621 46.556 16.6767C45.8594 16.8884 45.1353 16.9959 44.4073 16.9958C43.8448 16.9958 43.3209 16.9244 42.8307 16.7866C42.3478 16.6488 41.9189 16.4354 41.5533 16.1468C41.1859 15.8525 40.9034 15.4876 40.6972 15.0457C40.4926 14.6013 40.387 14.0724 40.387 13.4617C40.387 12.7876 40.5081 12.2326 40.747 11.7981C40.9797 11.3638 41.2821 11.0141 41.6602 10.7554C42.0319 10.4947 42.4589 10.2985 42.9425 10.1707C43.4192 10.041 43.9026 9.93722 44.3906 9.85977C44.8803 9.78471 45.3569 9.72389 45.833 9.6766C46.3103 9.63002 46.7237 9.56375 47.093 9.47059C47.4573 9.37989 47.7491 9.24207 47.9632 9.0677C48.1736 8.8928 48.2748 8.63826 48.2606 8.29936C48.2606 7.9492 48.1984 7.67006 48.086 7.46141C47.9798 7.26479 47.8238 7.09954 47.6336 6.98223C47.442 6.86674 47.2258 6.79115 46.9768 6.75073C46.7094 6.71231 46.4395 6.69322 46.1693 6.6936C45.5332 6.6936 45.0297 6.8351 44.6729 7.10703C44.306 7.38688 44.0951 7.84742 44.0299 8.49043H40.7688C40.8159 7.7228 41.0047 7.08893 41.346 6.58567V6.58567ZM56.3996 4.85703V6.50674H56.4722C56.8837 5.82102 57.4144 5.3225 58.0736 5.01348C58.7271 4.70182 59.4042 4.54783 60.0908 4.54783C60.9629 4.54783 61.6785 4.66209 62.2317 4.89729C62.7945 5.13688 63.2322 5.46102 63.5493 5.88237C63.8745 6.30196 64.0979 6.81401 64.2284 7.41729C64.3599 8.01934 64.4252 8.68362 64.4252 9.41592V16.6894H61.1571V10.0062C61.1571 9.03184 61.0038 8.29936 60.699 7.82018C60.39 7.3403 59.8569 7.03268 59.0741 7.03268C58.1896 7.03268 57.5453 7.36578 57.1493 7.89155C56.751 8.41713 56.5534 9.2825 56.5534 10.4866V16.6894H53.321V4.85703H56.3996M71.6586 6.97362C71.136 6.97362 70.7047 7.08893 70.3577 7.32869C70.0038 7.56508 69.7081 7.8787 69.493 8.24592C69.2715 8.61893 69.1181 9.03166 69.0232 9.4836C68.9344 9.93483 68.8848 10.3818 68.8848 10.8262C68.8848 11.2556 68.9344 11.6909 69.0232 12.1353C69.1181 12.5772 69.264 12.9762 69.4702 13.3399C69.6774 13.6947 69.9645 13.9962 70.3086 14.2207C70.6581 14.451 71.0833 14.5658 71.5878 14.5658C72.3706 14.5658 72.9702 14.3473 73.3904 13.9147C73.8088 13.4796 74.0676 12.895 74.1767 12.1625H77.3162C77.1008 13.7322 76.49 14.9314 75.4852 15.7581C74.4766 16.5794 73.185 16.9958 71.6121 16.9958C70.7233 16.9958 69.9158 16.8444 69.171 16.5475C68.4274 16.2466 67.796 15.8321 67.2761 15.297C66.7558 14.7607 66.3523 14.1233 66.0569 13.3822C65.7682 12.6397 65.623 11.8248 65.623 10.9405C65.623 10.0243 65.7577 9.17088 66.0252 8.38198C66.2915 7.59623 66.6851 6.91526 67.2094 6.34414C67.7291 5.76934 68.3647 5.3225 69.1163 5.001C69.8648 4.68002 70.7202 4.51936 71.6804 4.51936C72.383 4.51936 73.0577 4.61428 73.7093 4.79182C74.3562 4.97305 74.9377 5.25307 75.4478 5.62854C75.9581 5.99956 76.3846 6.47392 76.6994 7.02073C77.0165 7.57496 77.1977 8.23906 77.2478 8.99826H74.0602C73.8491 7.64756 73.0484 6.97362 71.6586 6.97362M17.3582 1.44002H23.9841V3.05334H17.3582V1.44002ZM85.9799 7.6328C85.5881 7.20512 84.9289 6.97362 84.1407 6.97362C83.6218 6.97362 83.1904 7.06115 82.8404 7.23922C82.5033 7.415 82.1953 7.63403 81.9888 7.89155C81.7821 8.15346 81.6337 8.42961 81.5476 8.7251C81.4706 9.01321 81.4164 9.27442 81.4022 9.50539H86.7315C86.6445 8.67606 86.3677 8.06346 85.9797 7.6328H85.9799ZM82.2041 13.8509C82.6928 14.3262 83.43 14.5658 84.3486 14.5658C85.0029 14.5658 85.5682 14.4 86.0407 14.0692C86.513 13.7396 86.8059 13.3865 86.9103 13.0203H89.7729C89.3153 14.4448 88.6127 15.4621 87.6662 16.0742C86.7215 16.6892 85.5782 16.9958 84.2356 16.9958C83.301 16.9958 82.4585 16.8444 81.7114 16.5475C80.9596 16.2466 80.3298 15.8246 79.8028 15.2747C79.2814 14.7222 78.8817 14.0692 78.5973 13.3028C78.315 12.5399 78.1747 11.6951 78.1747 10.7796C78.1747 9.89457 78.3199 9.0677 78.609 8.30375C78.9021 7.53717 79.3185 6.87553 79.8518 6.32059C80.3923 5.76266 81.0243 5.3225 81.7647 5.001C82.5082 4.68002 83.3339 4.51936 84.2356 4.51936C85.2356 4.51936 86.1165 4.71184 86.8606 5.10471C87.6117 5.49143 88.2285 6.01578 88.7077 6.67268C89.19 7.32852 89.537 8.0784 89.7499 8.91881C89.9596 9.75852 90.0404 10.6357 89.9801 11.5543H81.4022C81.4022 12.4896 81.7144 13.3754 82.2041 13.8509V13.8509Z" fill="#495057"/>
</g>
<defs>
<clipPath id="clip0_25_52">
<rect width="90" height="16.6992" fill="white" transform="translate(0 0.341736)"/>
</clipPath>
</defs>
</svg>
