<svg width="46" height="12" viewBox="0 0 36 8" fill="none" xmlns="http://www.w3.org/2000/svg">
<g clip-path="url(#clip0_746_69)">
<path d="M2.98029 6.18557C3.12232 6.18557 3.25711 6.1723 3.38395 6.14268C3.51262 6.11299 3.62681 6.06642 3.72314 5.99723C3.81947 5.93092 3.89913 5.83984 3.95728 5.72379C4.01536 5.60899 4.04313 5.46 4.04313 5.27962C4.04313 4.9266 3.94835 4.67578 3.75984 4.52355C3.57091 4.37345 3.31898 4.29881 3.00912 4.29881H1.44396V6.18557H2.98029V6.18557ZM2.90083 3.26893C3.15579 3.26893 3.36687 3.20548 3.53421 3.07661C3.6998 2.95024 3.78023 2.74076 3.78023 2.45354C3.78023 2.29438 3.75344 2.16241 3.6998 2.06014C3.64446 1.95786 3.57091 1.87777 3.4781 1.82184C3.38599 1.76356 3.28193 1.72318 3.16099 1.70159C3.04258 1.67713 2.9182 1.66777 2.79087 1.66777H1.44396V3.26893H2.90083ZM3.08702 0.500684C3.39963 0.500684 3.68187 0.529052 3.93991 0.587631C4.19634 0.644589 4.4153 0.739789 4.60029 0.870431C4.78254 1.00078 4.92506 1.17431 5.02708 1.39285C5.12665 1.60831 5.17685 1.87784 5.17685 2.19682C5.17685 2.54181 5.10204 2.82984 4.95255 3.06011C4.80208 3.29007 4.58095 3.47871 4.2855 3.62526C4.6879 3.74647 4.98581 3.96008 5.18346 4.26344C5.38209 4.56886 5.47919 4.9347 5.47919 5.36325C5.47919 5.71082 5.41563 6.00976 5.289 6.26139C5.16089 6.51612 4.98665 6.72265 4.77185 6.88188C4.55529 7.04266 4.30659 7.16056 4.02801 7.23734C3.74914 7.31449 3.46186 7.35324 3.17344 7.35258H0.00445175V0.50061H3.08702V0.500684ZM9.02555 3.55622C8.87086 3.37695 8.60923 3.27991 8.28994 3.27991C8.08209 3.27991 7.91004 3.3166 7.77251 3.39124C7.63793 3.46493 7.52747 3.55674 7.4433 3.66468C7.35935 3.77447 7.30198 3.89023 7.26879 4.01409C7.23546 4.13486 7.21563 4.24436 7.20944 4.34118H9.32522C9.29421 3.99354 9.18073 3.73675 9.02555 3.55622ZM7.53141 6.16273C7.7261 6.36197 8.00763 6.4624 8.37234 6.4624C8.63454 6.4624 8.86123 6.39292 9.05135 6.25424C9.23979 6.11608 9.35454 5.96805 9.39898 5.81457H10.544C10.36 6.4117 10.0807 6.83812 9.69956 7.09468C9.32325 7.3525 8.8639 7.48101 8.32889 7.48101C7.95595 7.48101 7.62035 7.41757 7.3192 7.29312C7.01798 7.16697 6.76626 6.99005 6.55448 6.75957C6.34812 6.52798 6.18801 6.25424 6.07383 5.93298C5.96083 5.61319 5.90367 5.25906 5.90367 4.87532C5.90367 4.50432 5.96308 4.1577 6.07854 3.83747C6.19666 3.51614 6.35979 3.23879 6.57431 3.00617C6.78961 2.77229 7.04456 2.58779 7.34149 2.45302C7.6387 2.31847 7.96615 2.25113 8.32889 2.25113C8.72939 2.25113 9.08018 2.33181 9.38083 2.49649C9.68051 2.6586 9.92604 2.8784 10.1192 3.15376C10.3121 3.42867 10.4494 3.74301 10.5353 4.09529C10.6202 4.44728 10.6503 4.81497 10.6257 5.20004H7.20937C7.20937 5.59212 7.33594 5.96341 7.53141 6.16273V6.16273ZM12.4726 0.500684V3.0842H12.5024C12.6675 2.79676 12.8764 2.58779 13.1331 2.45825C13.3893 2.32761 13.6393 2.26306 13.8828 2.26306C14.2301 2.26306 14.5147 2.31096 14.7369 2.40955C14.9594 2.50998 15.1354 2.64585 15.2642 2.82247C15.3906 2.99836 15.48 3.213 15.5324 3.46588C15.5837 3.71825 15.6103 3.99671 15.6103 4.30367V7.35258H14.3036V4.55111C14.3036 4.14267 14.2428 3.83563 14.1217 3.63477C14.0003 3.43361 13.7848 3.33266 13.4739 3.33266C13.1224 3.33266 12.8681 3.44429 12.7107 3.66468C12.5504 3.885 12.4726 4.24775 12.4726 4.75248V7.35258H11.1664V0.50061H12.4726M19.0981 5.04781C19.0172 5.07588 18.9275 5.09961 18.8351 5.12017C18.7363 5.13942 18.6368 5.15539 18.537 5.16806C18.4334 5.18068 18.3302 5.19638 18.2274 5.21515C18.1301 5.23512 18.0328 5.26009 17.9401 5.29266C17.8458 5.32494 17.7631 5.36782 17.6951 5.42198C17.6248 5.47681 17.567 5.54714 17.5256 5.628C17.4838 5.71075 17.4615 5.81818 17.4615 5.94521C17.4615 6.06642 17.4838 6.16869 17.5255 6.25269C17.5685 6.33596 17.6246 6.40102 17.6983 6.44914C17.7718 6.49725 17.8579 6.53107 17.9538 6.54986C18.0511 6.57013 18.1517 6.57772 18.2548 6.57772C18.5104 6.57772 18.7076 6.53321 18.8481 6.44398C18.9878 6.35416 19.0932 6.24702 19.1589 6.12213C19.226 5.99723 19.2665 5.8713 19.2796 5.74435C19.2967 5.61658 19.3045 5.51357 19.3045 5.43627V4.9266C19.2481 4.97892 19.1818 5.01922 19.0981 5.04781V5.04781ZM16.5386 3.11728C16.6688 2.90816 16.8435 2.73364 17.0491 2.60754C17.2567 2.47859 17.4886 2.38774 17.7492 2.33336C18.0069 2.27812 18.2693 2.25057 18.5323 2.25113C18.7694 2.25113 19.0092 2.26829 19.2563 2.30366C19.4993 2.33881 19.7216 2.40778 19.9231 2.51049C20.1245 2.6138 20.2886 2.75513 20.4157 2.93956C20.5446 3.11935 20.6099 3.36287 20.6099 3.66468V6.25034C20.6099 6.47515 20.6227 6.68876 20.6456 6.8933C20.6714 7.09962 20.7382 7.25436 20.8013 7.35589L19.4731 7.3525C19.434 7.29319 19.4018 7.20027 19.3866 7.11937C19.371 7.03881 19.3603 6.9573 19.3546 6.87533C19.1477 7.09962 18.9052 7.2573 18.6226 7.34727C18.344 7.43601 18.0544 7.48108 17.7631 7.48101C17.5381 7.48101 17.3286 7.45109 17.1325 7.39333C16.9394 7.33556 16.7678 7.2461 16.6215 7.12512C16.4746 7.00177 16.3616 6.8488 16.2791 6.66356C16.1973 6.47728 16.155 6.25557 16.155 5.99959C16.155 5.71701 16.2035 5.48439 16.299 5.30224C16.3921 5.12017 16.5131 4.97361 16.6643 4.86515C16.813 4.75587 16.9838 4.67364 17.1772 4.62007C17.3679 4.5657 17.5613 4.52219 17.7565 4.48973C17.9524 4.45826 18.143 4.43277 18.3334 4.41295C18.5243 4.39342 18.6897 4.36564 18.8374 4.32659C18.9831 4.28857 19.0998 4.2308 19.1855 4.1577C19.2697 4.08439 19.3102 3.97769 19.3045 3.83563C19.3045 3.68885 19.2796 3.57184 19.2346 3.48438C19.1922 3.40196 19.1297 3.33269 19.0537 3.28352C18.977 3.23511 18.8905 3.20342 18.791 3.18647C18.684 3.17037 18.576 3.16237 18.468 3.16253C18.2135 3.16253 18.0121 3.22184 17.8694 3.33583C17.7226 3.45314 17.6383 3.64619 17.6122 3.91573H16.3077C16.3266 3.59395 16.4021 3.32824 16.5386 3.11728V3.11728ZM22.5601 2.39267V3.0842H22.5891C22.7537 2.79676 22.966 2.58779 23.2297 2.45825C23.4911 2.32761 23.7619 2.26306 24.0366 2.26306C24.3854 2.26306 24.6716 2.31096 24.8929 2.40955C25.118 2.50998 25.2931 2.64585 25.42 2.82247C25.55 2.99836 25.6394 3.213 25.6916 3.46588C25.7442 3.71825 25.7703 3.99671 25.7703 4.30367V7.35258H24.4631V4.55111C24.4631 4.14267 24.4018 3.83563 24.2798 3.63477C24.1562 3.43361 23.943 3.30466 23.6299 3.30466C23.2761 3.30466 23.0184 3.44429 22.86 3.66468C22.7006 3.885 22.6216 4.24775 22.6216 4.75248V7.35258H21.3286V2.39267H22.5601M28.6637 3.27991C28.4546 3.27991 28.2821 3.32824 28.1433 3.42875C28.0017 3.52783 27.8835 3.6593 27.7974 3.81323C27.7088 3.96959 27.6475 4.1426 27.6095 4.33204C27.574 4.52119 27.5542 4.70857 27.5542 4.89484C27.5542 5.07485 27.574 5.25729 27.6095 5.44357C27.6475 5.62881 27.7058 5.79607 27.7883 5.94853C27.8712 6.09724 27.986 6.22366 28.1237 6.31776C28.2635 6.41428 28.4336 6.4624 28.6354 6.4624C28.9485 6.4624 29.1883 6.37081 29.3564 6.18947C29.5237 6.0071 29.6272 5.76203 29.6709 5.45499H30.9267C30.8406 6.11299 30.5962 6.61566 30.1943 6.9622C29.7909 7.30645 29.2742 7.48101 28.6451 7.48101C28.2896 7.48101 27.9665 7.41757 27.6686 7.29312C27.3712 7.16697 27.1186 6.99322 26.9107 6.76893C26.7025 6.54412 26.5412 6.27694 26.423 5.96628C26.3075 5.65504 26.2494 5.31344 26.2494 4.94274C26.2494 4.55869 26.3033 4.20096 26.4103 3.87026C26.5168 3.54089 26.6743 3.25544 26.884 3.01604C27.0918 2.77509 27.3461 2.58779 27.6468 2.45302C27.9461 2.31847 28.2883 2.25113 28.6724 2.25113C28.9534 2.25113 29.2233 2.29092 29.484 2.36534C29.7427 2.4413 29.9753 2.55868 30.1793 2.71607C30.3835 2.8716 30.5541 3.07044 30.68 3.29965C30.8068 3.53198 30.8793 3.81036 30.8993 4.1286H29.6243C29.5399 3.56241 29.2196 3.27991 28.6637 3.27991M6.94352 0.960326H9.59388V1.6366H6.94352V0.960326ZM34.3922 3.55622C34.2355 3.37695 33.9718 3.27991 33.6565 3.27991C33.4489 3.27991 33.2764 3.3166 33.1364 3.39124C33.0015 3.46493 32.8784 3.55674 32.7957 3.66468C32.7131 3.77447 32.6537 3.89023 32.6193 4.01409C32.5885 4.13486 32.5668 4.24436 32.5611 4.34118H34.6928C34.658 3.99354 34.5473 3.73675 34.3921 3.55622H34.3922ZM32.8819 6.16273C33.0773 6.36197 33.3722 6.4624 33.7397 6.4624C34.0014 6.4624 34.2275 6.39292 34.4165 6.25424C34.6054 6.11608 34.7226 5.96805 34.7644 5.81457H35.9094C35.7264 6.4117 35.4453 6.83812 35.0667 7.09468C34.6888 7.3525 34.2315 7.48101 33.6945 7.48101C33.3206 7.48101 32.9836 7.41757 32.6848 7.29312C32.3841 7.16697 32.1321 6.99005 31.9213 6.75957C31.7128 6.52798 31.5529 6.25424 31.4391 5.93298C31.3262 5.61319 31.2701 5.25906 31.2701 4.87532C31.2701 4.50432 31.3282 4.1577 31.4438 3.83747C31.5611 3.51614 31.7276 3.23879 31.941 3.00617C32.1572 2.77229 32.4099 2.58779 32.7061 2.45302C33.0035 2.31847 33.3338 2.25113 33.6945 2.25113C34.0945 2.25113 34.4468 2.33181 34.7445 2.49649C35.0449 2.6586 35.2916 2.8784 35.4833 3.15376C35.6762 3.42867 35.815 3.74301 35.9002 4.09529C35.9841 4.44728 36.0164 4.81497 35.9923 5.20004H32.5611C32.5611 5.59212 32.686 5.96341 32.8819 6.16273V6.16273Z" fill="#495057"/>
</g>
<defs>
<clipPath id="clip0_746_69">
<rect width="46" height="12" fill="white" transform="translate(0 0.5)"/>
</clipPath>
</defs>
</svg>
