<svg width="25" height="25" viewBox="0 0 25 25" fill="none" xmlns="http://www.w3.org/2000/svg">
<circle cx="12.5" cy="12.5" r="12.5" fill="#FCA311"/>
<path d="M6.96 8.1H7.98V16.5H6.96V8.1ZM10.5014 12.3C10.5014 12.932 10.6374 13.496 10.9094 13.992C11.1894 14.488 11.5694 14.88 12.0494 15.168C12.5294 15.456 13.0734 15.6 13.6814 15.6C14.2974 15.6 14.8414 15.456 15.3134 15.168C15.7934 14.88 16.1694 14.488 16.4414 13.992C16.7214 13.496 16.8614 12.932 16.8614 12.3C16.8614 11.668 16.7214 11.104 16.4414 10.608C16.1694 10.112 15.7934 9.72 15.3134 9.432C14.8414 9.144 14.2974 9 13.6814 9C13.0734 9 12.5294 9.144 12.0494 9.432C11.5694 9.72 11.1894 10.112 10.9094 10.608C10.6374 11.104 10.5014 11.668 10.5014 12.3ZM9.42141 12.3C9.42141 11.684 9.52541 11.116 9.73341 10.596C9.94941 10.068 10.2494 9.612 10.6334 9.228C11.0174 8.836 11.4694 8.532 11.9894 8.316C12.5094 8.092 13.0734 7.98 13.6814 7.98C14.2974 7.98 14.8614 8.092 15.3734 8.316C15.8934 8.532 16.3454 8.836 16.7294 9.228C17.1134 9.612 17.4094 10.068 17.6174 10.596C17.8334 11.116 17.9414 11.684 17.9414 12.3C17.9414 12.908 17.8334 13.476 17.6174 14.004C17.4094 14.532 17.1134 14.992 16.7294 15.384C16.3454 15.768 15.8934 16.072 15.3734 16.296C14.8614 16.512 14.2974 16.62 13.6814 16.62C13.0734 16.62 12.5094 16.512 11.9894 16.296C11.4694 16.072 11.0174 15.768 10.6334 15.384C10.2494 14.992 9.94941 14.532 9.73341 14.004C9.52541 13.476 9.42141 12.908 9.42141 12.3Z" fill="black"/>
</svg>
