<svg width="50" height="51" viewBox="0 0 50 51" fill="none" xmlns="http://www.w3.org/2000/svg">
<circle cx="25" cy="25.4098" r="25" fill="#FCA311"/>
<path d="M13.92 16.6098H15.96V33.4098H13.92V16.6098ZM21.0028 25.0098C21.0028 26.2738 21.2748 27.4018 21.8188 28.3938C22.3788 29.3858 23.1388 30.1698 24.0988 30.7458C25.0588 31.3218 26.1468 31.6098 27.3628 31.6098C28.5948 31.6098 29.6828 31.3218 30.6268 30.7458C31.5868 30.1698 32.3388 29.3858 32.8828 28.3938C33.4428 27.4018 33.7228 26.2738 33.7228 25.0098C33.7228 23.7458 33.4428 22.6178 32.8828 21.6258C32.3388 20.6338 31.5868 19.8498 30.6268 19.2738C29.6828 18.6978 28.5948 18.4098 27.3628 18.4098C26.1468 18.4098 25.0588 18.6978 24.0988 19.2738C23.1388 19.8498 22.3788 20.6338 21.8188 21.6258C21.2748 22.6178 21.0028 23.7458 21.0028 25.0098ZM18.8428 25.0098C18.8428 23.7778 19.0508 22.6418 19.4668 21.6018C19.8988 20.5458 20.4988 19.6338 21.2668 18.8658C22.0348 18.0818 22.9388 17.4738 23.9788 17.0418C25.0188 16.5938 26.1468 16.3698 27.3628 16.3698C28.5948 16.3698 29.7228 16.5938 30.7468 17.0418C31.7868 17.4738 32.6908 18.0818 33.4588 18.8658C34.2268 19.6338 34.8188 20.5458 35.2348 21.6018C35.6668 22.6418 35.8828 23.7778 35.8828 25.0098C35.8828 26.2258 35.6668 27.3618 35.2348 28.4178C34.8188 29.4738 34.2268 30.3938 33.4588 31.1778C32.6908 31.9458 31.7868 32.5538 30.7468 33.0018C29.7228 33.4338 28.5948 33.6498 27.3628 33.6498C26.1468 33.6498 25.0188 33.4338 23.9788 33.0018C22.9388 32.5538 22.0348 31.9458 21.2668 31.1778C20.4988 30.3938 19.8988 29.4738 19.4668 28.4178C19.0508 27.3618 18.8428 26.2258 18.8428 25.0098Z" fill="black"/>
</svg>
