<svg width="50" height="50" viewBox="0 0 39 40" fill="none" xmlns="http://www.w3.org/2000/svg">
<circle cx="19.5" cy="20.4098" r="19.5" fill="#BAE935"/>
<path d="M10.8576 13.2658H12.4488V26.3698H10.8576V13.2658ZM16.3822 19.8178C16.3822 20.8037 16.5943 21.6835 17.0187 22.4573C17.4555 23.2311 18.0483 23.8426 18.7971 24.2919C19.5459 24.7411 20.3945 24.9658 21.343 24.9658C22.3039 24.9658 23.1526 24.7411 23.8889 24.2919C24.6377 23.8426 25.2243 23.2311 25.6486 22.4573C26.0854 21.6835 26.3038 20.8037 26.3038 19.8178C26.3038 18.8319 26.0854 17.952 25.6486 17.1783C25.2243 16.4045 24.6377 15.793 23.8889 15.3437C23.1526 14.8944 22.3039 14.6698 21.343 14.6698C20.3945 14.6698 19.5459 14.8944 18.7971 15.3437C18.0483 15.793 17.4555 16.4045 17.0187 17.1783C16.5943 17.952 16.3822 18.8319 16.3822 19.8178ZM14.6974 19.8178C14.6974 18.8568 14.8596 17.9707 15.1841 17.1595C15.5211 16.3359 15.9891 15.6245 16.5881 15.0255C17.1871 14.4139 17.8923 13.9397 18.7035 13.6027C19.5147 13.2533 20.3945 13.0786 21.343 13.0786C22.3039 13.0786 23.1838 13.2533 23.9825 13.6027C24.7937 13.9397 25.4988 14.4139 26.0979 15.0255C26.6969 15.6245 27.1587 16.3359 27.4831 17.1595C27.8201 17.9707 27.9886 18.8568 27.9886 19.8178C27.9886 20.7663 27.8201 21.6523 27.4831 22.476C27.1587 23.2997 26.6969 24.0173 26.0979 24.6288C25.4988 25.2279 24.7937 25.7021 23.9825 26.0515C23.1838 26.3885 22.3039 26.557 21.343 26.557C20.3945 26.557 19.5147 26.3885 18.7035 26.0515C17.8923 25.7021 17.1871 25.2279 16.5881 24.6288C15.9891 24.0173 15.5211 23.2997 15.1841 22.476C14.8596 21.6523 14.6974 20.7663 14.6974 19.8178Z" fill="black"/>
</svg>
