<svg width="28" height="28" viewBox="0 0 28 28" fill="none" xmlns="http://www.w3.org/2000/svg">
<path d="M11.4135 7.31301C11.2957 7.31227 11.179 7.33392 11.0699 7.37672C10.9608 7.41953 10.8616 7.48265 10.7778 7.56248C10.694 7.64231 10.6274 7.73727 10.5818 7.84195C10.5361 7.94662 10.5123 8.05895 10.5117 8.17251C10.5117 8.64613 10.9153 9.03088 11.4135 9.03088C11.6509 9.03208 11.8792 8.94235 12.048 8.78141C12.2169 8.62046 12.3126 8.40146 12.3142 8.17251C12.3136 8.05904 12.2898 7.94681 12.2442 7.84221C12.1986 7.73761 12.1321 7.64269 12.0484 7.56288C11.9648 7.48307 11.8657 7.41992 11.7567 7.37705C11.6478 7.33418 11.5312 7.31241 11.4135 7.31301V7.31301ZM2.21083 9.61251C0.957833 9.61251 0.1295 10.1998 0.1295 11.0896C0.1295 11.8029 0.574 12.2821 1.35217 12.4678L2.3275 12.704C2.61683 12.7918 2.7335 12.929 2.73233 13.1428C2.73233 13.379 2.48733 13.5106 2.23767 13.5219C1.876 13.5376 1.61117 13.3486 1.59133 13.0471H0C0.0233333 13.9471 0.935667 14.5794 2.303 14.5794C3.59567 14.5794 4.4345 14.0023 4.4345 13.0246C4.4345 12.3114 3.969 11.8614 3.20133 11.6656L2.25633 11.4136C1.93667 11.3225 1.82583 11.1864 1.82583 10.9951C1.82583 10.787 1.99617 10.6644 2.21667 10.6396C2.53633 10.6036 2.78367 10.7375 2.78367 11.0694V11.0919H4.41V11.0694H4.40883C4.40883 10.1311 3.58517 9.61363 2.21083 9.61363V9.61251ZM5.11 9.74301V14.4568H6.64767V12.4081L8.134 14.4556H10.024L8.1235 11.9795L9.99483 9.75538H8.17483L6.64767 11.7354V9.74413L5.11 9.74301ZM10.6447 9.74301V14.4568H12.1823V9.74301H10.6447ZM13.076 9.74301V14.4579H16.8303V13.0584H14.623V9.74413L13.076 9.74301ZM17.6692 9.74301V14.4579H21.4235V13.0584H19.2162V9.74413L17.6692 9.74301ZM2.21083 15.7145C0.957833 15.7145 0.1295 16.3018 0.1295 17.1905C0.1295 17.9049 0.574 18.383 1.35217 18.5686L2.3275 18.8049C2.61683 18.8926 2.7335 19.0299 2.73233 19.2436C2.73233 19.4799 2.48733 19.6126 2.23767 19.6239C1.876 19.6396 1.61117 19.4495 1.59133 19.148H0C0.0233333 20.048 0.935667 20.6803 2.303 20.6803C3.59567 20.6803 4.4345 20.1043 4.4345 19.1255C4.4345 18.4123 3.969 17.9623 3.20133 17.7676L2.25633 17.5145C1.93667 17.4234 1.82583 17.2884 1.82583 17.0971C1.82583 16.8879 1.99617 16.7653 2.21667 16.7405C2.53633 16.7045 2.78367 16.8384 2.78367 17.1714V17.1928H4.41V17.1703H4.40883C4.40883 16.232 3.58517 15.7145 2.21083 15.7145V15.7145ZM12.9325 15.7314C11.515 15.7314 10.6155 16.8035 10.6155 18.2086C10.6155 19.6228 11.4555 20.6859 12.9115 20.6848C13.5882 20.6848 14.1948 20.363 14.4585 19.895V20.5588H15.9962V15.8574H14.4585V16.5313C14.196 16.0531 13.6395 15.7314 12.9313 15.7314H12.9325ZM23.142 15.7314C21.5553 15.7314 20.5135 16.6674 20.5135 18.2086C20.5135 19.7791 21.5343 20.6859 23.1922 20.6859C24.4872 20.6859 25.4683 20.0716 25.6188 19.1446H24.1022C23.9703 19.4371 23.667 19.5643 23.1922 19.5643C22.5038 19.5643 22.0792 19.2324 22.0488 18.6181H25.6503C25.6807 18.3549 25.6912 18.2086 25.6912 17.9645C25.6912 16.6381 24.6598 15.7314 23.142 15.7314V15.7314ZM19.7937 15.7798C19.1987 15.7798 18.6212 16.1398 18.4497 16.8429V15.8574H16.9015V20.5588H18.4497V18.7441C18.4497 17.7013 18.8953 17.1748 19.733 17.1748C19.8863 17.1737 20.0395 17.1831 20.1915 17.2029L20.1997 15.8191C20.0672 15.7883 19.931 15.775 19.7948 15.7798H19.7937ZM5.11 15.8563V20.5711H6.62667V18.9005H8.48167V20.5711H9.99833V15.8563H8.48167V17.5494H6.62667V15.8563H5.11ZM23.1327 16.7349C23.7907 16.7349 24.1547 17.0668 24.1652 17.6911H22.05C22.0593 17.1163 22.4653 16.7349 23.1315 16.7349H23.1327ZM13.356 16.979C14.126 16.979 14.5192 17.5348 14.5192 18.2086C14.5192 18.8915 14.126 19.4461 13.356 19.4461C12.6373 19.4461 12.1928 18.9196 12.1928 18.2086C12.1928 17.4954 12.6385 16.979 13.356 16.979ZM27.0993 18.9376C26.9817 18.937 26.865 18.9588 26.7561 19.0017C26.6471 19.0445 26.548 19.1077 26.4644 19.1875C26.3808 19.2673 26.3142 19.3622 26.2687 19.4668C26.2231 19.5714 26.1993 19.6837 26.1987 19.7971C26.1987 20.2719 26.6012 20.6566 27.0993 20.6566C27.217 20.6572 27.3336 20.6355 27.4426 20.5926C27.5515 20.5497 27.6506 20.4866 27.7343 20.4068C27.8179 20.3269 27.8844 20.232 27.93 20.1274C27.9756 20.0228 27.9994 19.9106 28 19.7971C27.9994 19.6837 27.9756 19.5714 27.93 19.4668C27.8844 19.3622 27.8179 19.2673 27.7343 19.1875C27.6506 19.1077 27.5515 19.0445 27.4426 19.0017C27.3336 18.9588 27.217 18.937 27.0993 18.9376Z" fill="#495057"/>
</svg>
