<svg width="70" height="71" viewBox="0 0 70 71" fill="none" xmlns="http://www.w3.org/2000/svg">
<path d="M28.5338 18.3547C28.2393 18.3528 27.9474 18.4089 27.6748 18.5199C27.4021 18.6309 27.1539 18.7945 26.9445 19.0015C26.7351 19.2084 26.5686 19.4546 26.4544 19.726C26.3402 19.9974 26.2807 20.2886 26.2792 20.583C26.2792 21.8109 27.2883 22.8084 28.5338 22.8084C29.1273 22.8115 29.6979 22.5789 30.1201 22.1617C30.5423 21.7444 30.7816 21.1766 30.7854 20.583C30.7839 20.2889 30.7244 19.9979 30.6105 19.7267C30.4965 19.4555 30.3302 19.2094 30.1211 19.0025C29.912 18.7956 29.6642 18.6319 29.3919 18.5207C29.1195 18.4096 28.8279 18.3532 28.5338 18.3547V18.3547ZM5.52708 24.3164C2.39458 24.3164 0.32375 25.8389 0.32375 28.1459C0.32375 29.9951 1.435 31.2376 3.38042 31.7189L5.81875 32.3314C6.54208 32.5589 6.83375 32.9147 6.83083 33.4689C6.83083 34.0814 6.21833 34.4226 5.59417 34.4518C4.69 34.4926 4.02792 34.0026 3.97833 33.2209H0C0.0583333 35.5543 2.33917 37.1934 5.7575 37.1934C8.98917 37.1934 11.0863 35.6972 11.0863 33.1626C11.0863 31.3134 9.9225 30.1468 8.00333 29.6393L5.64083 28.9859C4.84167 28.7497 4.56458 28.3968 4.56458 27.9009C4.56458 27.3614 4.99042 27.0434 5.54167 26.9793C6.34083 26.8859 6.95917 27.233 6.95917 28.0934V28.1518H11.025V28.0934H11.0221C11.0221 25.6609 8.96292 24.3193 5.52708 24.3193V24.3164ZM12.775 24.6547V36.8755H16.6192V31.5643L20.335 36.8726H25.06L20.3088 30.453L24.9871 24.6868H20.4371L16.6192 29.8201V24.6576L12.775 24.6547ZM26.6117 24.6547V36.8755H30.4558V24.6547H26.6117ZM32.69 24.6547V36.8784H42.0758V33.2501H36.5575V24.6576L32.69 24.6547ZM44.1729 24.6547V36.8784H53.5588V33.2501H48.0404V24.6576L44.1729 24.6547ZM5.52708 40.1364C2.39458 40.1364 0.32375 41.6589 0.32375 43.963C0.32375 45.8151 1.435 47.0547 3.38042 47.5359L5.81875 48.1484C6.54208 48.3759 6.83375 48.7318 6.83083 49.2859C6.83083 49.8984 6.21833 50.2426 5.59417 50.2718C4.69 50.3126 4.02792 49.8197 3.97833 49.038H0C0.0583333 51.3714 2.33917 53.0105 5.7575 53.0105C8.98917 53.0105 11.0863 51.5172 11.0863 48.9797C11.0863 47.1305 9.9225 45.9639 8.00333 45.4593L5.64083 44.803C4.84167 44.5668 4.56458 44.2168 4.56458 43.7209C4.56458 43.1784 4.99042 42.8605 5.54167 42.7964C6.34083 42.703 6.95917 43.0501 6.95917 43.9134V43.9689H11.025V43.9105H11.0221C11.0221 41.478 8.96292 40.1364 5.52708 40.1364V40.1364ZM32.3313 40.1801C28.7875 40.1801 26.5388 42.9597 26.5388 46.6026C26.5388 50.2689 28.6388 53.0251 32.2788 53.0222C33.9704 53.0222 35.4871 52.188 36.1462 50.9747V52.6955H39.9904V40.5068H36.1462V42.2539C35.49 41.0143 34.0987 40.1801 32.3283 40.1801H32.3313ZM57.855 40.1801C53.8883 40.1801 51.2838 42.6068 51.2838 46.6026C51.2838 50.6743 53.8358 53.0251 57.9804 53.0251C61.2179 53.0251 63.6708 51.4326 64.0471 49.0293H60.2554C59.9258 49.7876 59.1675 50.1172 57.9804 50.1172C56.2596 50.1172 55.1979 49.2568 55.1221 47.6643H64.1258C64.2017 46.9818 64.2279 46.6026 64.2279 45.9697C64.2279 42.5309 61.6496 40.1801 57.855 40.1801V40.1801ZM49.4842 40.3055C47.9967 40.3055 46.5529 41.2389 46.1242 43.0618V40.5068H42.2538V52.6955H46.1242V47.9909C46.1242 45.2872 47.2383 43.9222 49.3325 43.9222C49.7158 43.9196 50.0989 43.9439 50.4787 43.9951L50.4992 40.4076C50.168 40.3276 49.8275 40.2932 49.4871 40.3055H49.4842ZM12.775 40.5039V52.7276H16.5667V48.3964H21.2042V52.7276H24.9958V40.5039H21.2042V44.8934H16.5667V40.5039H12.775ZM57.8317 42.7818C59.4767 42.7818 60.3867 43.6422 60.4129 45.2609H55.125C55.1483 43.7705 56.1633 42.7818 57.8288 42.7818H57.8317ZM33.39 43.4147C35.315 43.4147 36.2979 44.8555 36.2979 46.6026C36.2979 48.373 35.315 49.8109 33.39 49.8109C31.5933 49.8109 30.4821 48.4459 30.4821 46.6026C30.4821 44.7534 31.5963 43.4147 33.39 43.4147ZM67.7483 48.4926C67.4542 48.4911 67.1626 48.5475 66.8902 48.6586C66.6179 48.7698 66.3701 48.9335 66.161 49.1404C65.9519 49.3474 65.7856 49.5934 65.6716 49.8646C65.5577 50.1358 65.4982 50.4268 65.4967 50.7209C65.4967 51.9518 66.5029 52.9493 67.7483 52.9493C68.0425 52.9508 68.3341 52.8944 68.6064 52.7832C68.8788 52.6721 69.1266 52.5084 69.3357 52.3015C69.5448 52.0945 69.7111 51.8485 69.825 51.5773C69.939 51.3061 69.9985 51.0151 70 50.7209C69.9985 50.4268 69.939 50.1358 69.825 49.8646C69.7111 49.5934 69.5448 49.3474 69.3357 49.1404C69.1266 48.9335 68.8788 48.7698 68.6064 48.6586C68.3341 48.5475 68.0425 48.4911 67.7483 48.4926Z" fill="#495057"/>
</svg>
