<svg width="24" height="25" viewBox="0 0 24 25" fill="none" xmlns="http://www.w3.org/2000/svg">
<g clip-path="url(#clip0_9_297)">
<path d="M12 18.4098C10.4087 18.4098 8.88258 17.7776 7.75736 16.6524C6.63214 15.5272 6 14.0011 6 12.4098C6 10.8185 6.63214 9.29237 7.75736 8.16715C8.88258 7.04193 10.4087 6.40979 12 6.40979C13.5913 6.40979 15.1174 7.04193 16.2426 8.16715C17.3679 9.29237 18 10.8185 18 12.4098C18 14.0011 17.3679 15.5272 16.2426 16.6524C15.1174 17.7776 13.5913 18.4098 12 18.4098ZM11 1.40979H13V4.40979H11V1.40979ZM11 20.4098H13V23.4098H11V20.4098ZM3.515 5.33879L4.929 3.92479L7.05 6.04579L5.636 7.45979L3.515 5.33979V5.33879ZM16.95 18.7738L18.364 17.3598L20.485 19.4808L19.071 20.8948L16.95 18.7738ZM19.071 3.92379L20.485 5.33879L18.364 7.45979L16.95 6.04579L19.071 3.92479V3.92379ZM5.636 17.3598L7.05 18.7738L4.929 20.8948L3.515 19.4808L5.636 17.3598ZM23 11.4098V13.4098H20V11.4098H23ZM4 11.4098V13.4098H1V11.4098H4Z" fill="#636366"/>
</g>
<defs>
<clipPath id="clip0_9_297">
<rect width="24" height="24" fill="white" transform="translate(0 0.40979)"/>
</clipPath>
</defs>
</svg>
