<svg width="32" height="10" viewBox="0 0 32 10" fill="none" xmlns="http://www.w3.org/2000/svg">
<g clip-path="url(#clip0_746_66)">
<path d="M8.75669 6.18398C8.23663 6.18398 7.74931 5.97675 7.30656 5.63939L7.41438 5.16316L7.41906 5.14551C7.51506 4.63845 7.81963 3.78734 8.75669 3.78734C9.45944 3.78734 10.0311 4.32534 10.0311 4.98675C10.0287 5.64598 9.45713 6.18398 8.75669 6.18398V6.18398ZM8.75669 2.57251C7.55956 2.57251 6.63194 3.30451 6.25481 4.50834C5.6785 3.69475 5.24275 2.71804 4.98744 1.89563H3.699V5.05069C3.699 5.67245 3.16019 6.17951 2.49956 6.17951C1.83894 6.17951 1.30019 5.67245 1.30019 5.05069V1.89563H0.0116266V5.05069C0.00693913 6.34275 1.12438 7.40322 2.49713 7.40322C3.86994 7.40322 4.98738 6.34275 4.98738 5.05069V4.52157C5.238 5.01322 5.54488 5.50928 5.91738 5.95028L5.12788 9.44263H6.44681L7.01838 6.90934C7.51969 7.21139 8.096 7.40104 8.75663 7.40104C10.1692 7.40104 11.3194 6.31187 11.3194 4.98234C11.3194 3.65504 10.1692 2.57251 8.75663 2.57251H8.75669Z" fill="#495057"/>
<path d="M15.2527 2.7092L16.0843 5.86426L17.0003 2.7092H18.0919L16.6841 7.26873H15.5924L14.728 4.09379L13.8659 7.26649H12.7742L11.3662 2.70702H12.4579L13.3739 5.86208L14.2055 2.70702H15.2526L15.2527 2.7092ZM20.7039 2.57249C19.2867 2.57249 18.1388 3.65502 18.1388 4.98673C18.1388 6.32067 19.289 7.40102 20.7039 7.40102C22.1212 7.40102 23.2714 6.32067 23.2714 4.98673C23.2714 3.65285 22.1212 2.57249 20.7039 2.57249ZM20.7039 6.40885C19.87 6.40885 19.1953 5.77385 19.1953 4.98897C19.1953 4.20402 19.8723 3.56908 20.7039 3.56908C21.5379 3.56908 22.2126 4.20402 22.2126 4.98897C22.2126 5.77167 21.5379 6.40885 20.7039 6.40885ZM26.3894 3.73002C25.6562 3.73002 25.0636 4.29002 25.0636 4.97791V7.26649H23.9648V2.7092H25.0636V3.41032C25.0636 3.41032 25.5321 2.70697 26.4949 2.70697H26.8322V3.73002H26.3894ZM30.0767 4.81038C30.8567 4.39585 31.3863 3.60873 31.3863 2.70697H30.2875C30.2875 3.46761 29.6316 4.08497 28.8234 4.08497H28.6758V0.508789H27.5772V7.26644H28.6758V5.11902H28.8071C28.9148 5.11902 29.0554 5.1852 29.1186 5.26673L30.6787 7.26649H31.9953L30.0767 4.81038Z" fill="#495057"/>
</g>
<defs>
<clipPath id="clip0_746_66">
<rect width="32" height="9" fill="white" transform="translate(0 0.5)"/>
</clipPath>
</defs>
</svg>
