<svg width="80" height="25" viewBox="0 0 80 25" fill="none" xmlns="http://www.w3.org/2000/svg">
<g clip-path="url(#clip0_25_49)">
<path d="M21.8917 15.8363C20.5916 15.8363 19.3733 15.2859 18.2664 14.3898L18.536 13.1248L18.5477 13.0779C18.7877 11.731 19.5491 9.47025 21.8917 9.47025C23.6486 9.47025 25.0777 10.8993 25.0777 12.6562C25.0717 14.4073 23.6428 15.8363 21.8917 15.8363V15.8363ZM21.8917 6.24337C18.8989 6.24337 16.5799 8.18775 15.6371 11.3854C14.1963 9.22431 13.1069 6.62994 12.4686 4.4454H9.24753V12.826C9.24753 14.4776 7.9005 15.8245 6.24893 15.8245C4.59737 15.8245 3.2505 14.4776 3.2505 12.826V4.4454H0.0290895V12.826C0.0173707 16.2581 2.81096 19.0749 6.24284 19.0749C9.67487 19.0749 12.4685 16.2581 12.4685 12.826V11.4206C13.095 12.7265 13.8622 14.0442 14.7935 15.2156L12.8197 24.4921H16.1171L17.546 17.7631C18.7992 18.5654 20.24 19.0692 21.8916 19.0692C25.423 19.0692 28.2986 16.176 28.2986 12.6445C28.2986 9.11884 25.423 6.24337 21.8916 6.24337H21.8917Z" fill="#495057"/>
<path d="M38.1317 6.6065L40.2108 14.9871L42.5008 6.6065H45.2299L41.7102 18.7177H38.981L36.82 10.2843L34.6647 18.7118H31.9356L28.4156 6.60072H31.1449L33.4347 14.9813L35.5138 6.60072H38.1316L38.1317 6.6065ZM51.7599 6.24338C48.2167 6.24338 45.3471 9.11884 45.3471 12.6562C45.3471 16.1995 48.2225 19.0692 51.7599 19.0692C55.3031 19.0692 58.1786 16.1995 58.1786 12.6562C58.1786 9.11306 55.3031 6.24338 51.7599 6.24338ZM51.7599 16.4337C49.675 16.4337 47.9883 14.747 47.9883 12.6621C47.9883 10.5771 49.6808 8.89056 51.7599 8.89056C53.8449 8.89056 55.5314 10.5771 55.5314 12.6621C55.5314 14.7412 53.8449 16.4337 51.7599 16.4337ZM65.9736 9.31806C64.1406 9.31806 62.6589 10.8056 62.6589 12.6328V18.7118H59.9121V6.6065H62.6589V8.46885C62.6589 8.46885 63.8302 6.60056 66.2372 6.60056H67.0805V9.31806H65.9736ZM75.1919 12.1878C77.1419 11.0867 78.4657 8.99588 78.4657 6.60056H75.7188C75.7188 8.62103 74.0791 10.2609 72.0586 10.2609H71.6896V0.761658H68.943V18.7117H71.6896V13.0076H72.0177C72.2871 13.0076 72.6385 13.1834 72.7966 13.3999L76.6969 18.7118H79.9883L75.1919 12.1878Z" fill="#495057"/>
</g>
<defs>
<clipPath id="clip0_25_49">
<rect width="80" height="23.9062" fill="white" transform="translate(0 0.73822)"/>
</clipPath>
</defs>
</svg>
